<svg width="153" height="153" viewBox="0 0 153 153" fill="none" xmlns="http://www.w3.org/2000/svg">
<path d="M40.1406 1.1084C46.9088 0.572826 53.9122 2.10474 61.1465 3.89453C68.1017 5.6153 75.2811 7.57809 82.4287 7.97656L83.1201 8.01074C90.4504 8.31613 97.6735 6.88972 104.329 5.75977C111.054 4.61804 117.156 3.78814 122.527 5.08301L122.533 5.08496C133.12 7.56485 141.248 18.6415 145.007 30.709C146.874 36.7024 147.667 42.8649 148.14 49.2598C148.606 55.5728 148.768 62.3346 149.365 69.0996C149.667 72.518 150.088 75.9788 150.5 79.4404C150.913 82.9084 151.317 86.3811 151.59 89.8525C152.136 96.7966 152.154 103.685 150.685 110.397L150.684 110.402C147.84 123.739 139 136.606 126.936 144.061C114.778 151.411 99.2369 153.491 85.1406 150.928C71.0351 148.363 58.4965 141.274 51.3818 131.04C47.8636 125.857 45.6556 119.905 43.2822 113.739C40.9225 107.609 38.407 101.292 34.2695 95.6221C30.1454 89.9704 24.3963 85.0112 18.9756 80.0371C13.5082 75.0201 8.35152 69.9704 5.14062 64.0352C-1.25908 52.2049 0.0604088 36.578 7.03125 24.0049C13.9936 11.7241 26.3458 2.46911 39.5137 1.16406L40.1406 1.1084Z" fill="#697F5F" stroke="#5B7052" stroke-width="2"/>
</svg>
