<?xml version="1.0" standalone="no"?>
<svg viewBox="0 0 200 200" xmlns="http://www.w3.org/2000/svg">
  <path fill="#697F5F" d="M39.3,-64.2C50.4,-61.6,58.7,-50.1,62.5,-37.9C66.3,-25.7,65.7,-12.9,66.9,0.7C68.1,14.3,71.2,28.6,68.2,42.3C65.3,55.9,56.3,69,44,76.6C31.6,84.1,15.8,86.2,1.5,83.6C-12.8,81,-25.6,73.8,-32.9,63.3C-40.1,52.7,-41.9,39,-50,27.9C-58.1,16.8,-72.6,8.4,-79.2,-3.8C-85.8,-16,-84.4,-32,-77.3,-44.8C-70.1,-57.5,-57.2,-67.1,-43.4,-68.2C-29.5,-69.3,-14.8,-61.9,-0.3,-61.3C14.1,-60.7,28.1,-66.9,39.3,-64.2Z" transform="translate(100 100)" />
</svg>
